#N canvas 199 216 494 403 10;
#X obj 1 383 dac~;
#X obj 144 106 random 1000;
#X obj 114 24 metro 20;
#X obj 1 131 > 70;
#X obj 114 2 loadbang;
#X obj 1 181 f;
#X obj 31 181 + 1;
#X obj 1 203 mod 4;
#X obj 1 160 sel 1;
#X obj 144 179 +;
#X obj 1 226 pack f f;
#X obj 144 129 / 4000;
#N canvas 0 0 164 266 bubble 0;
#X obj 4 201 osc~;
#X obj 4 226 *~;
#X obj 4 5 inlet;
#X obj 4 247 outlet~;
#N canvas 231 126 162 178 env4pow 0;
#X obj 61 46 vline~;
#X obj 61 72 *~;
#X obj 61 97 *~;
#X obj 1 134 -~;
#X obj 1 158 outlet~;
#X msg 61 23 1 0 0 \, 0 \$1 0;
#X obj 61 1 inlet;
#X obj 1 96 sig~ 1;
#X obj 61 158 outlet~;
#X obj 61 127 *~;
#X connect 0 0 1 0;
#X connect 0 0 1 1;
#X connect 1 0 2 0;
#X connect 1 0 2 1;
#X connect 2 0 3 1;
#X connect 2 0 9 0;
#X connect 2 0 9 1;
#X connect 3 0 4 0;
#X connect 5 0 0 0;
#X connect 6 0 5 0;
#X connect 7 0 3 0;
#X connect 9 0 8 0;
#X restore 4 134 pd env4pow;
#X obj 85 114 + 0.1;
#X obj 4 179 +~;
#X obj 69 156 lop~ 12;
#X obj 69 179 *~;
#X obj 4 111 * 90;
#X obj 39 114 + 100;
#X obj 4 156 *~ 2000;
#X obj 39 92 * 300;
#X obj 4 28 t f f f;
#X obj 39 51 swap 1;
#X obj 39 72 -;
#X connect 0 0 1 0;
#X connect 1 0 3 0;
#X connect 2 0 13 0;
#X connect 4 0 11 0;
#X connect 4 1 7 0;
#X connect 5 0 8 1;
#X connect 6 0 0 0;
#X connect 7 0 8 0;
#X connect 8 0 1 1;
#X connect 9 0 4 0;
#X connect 10 0 6 1;
#X connect 11 0 6 0;
#X connect 12 0 10 0;
#X connect 13 0 9 0;
#X connect 13 1 14 0;
#X connect 13 2 5 0;
#X connect 14 0 15 0;
#X connect 14 1 15 1;
#X connect 15 0 12 0;
#X restore 1 271 pd bubble;
#X obj 1 248 route 1 2 3 4;
#X obj 114 50 t b b;
#X obj 24 107 inlet intensity;
#X obj 1 359 *~ 0.1;
#N canvas 0 0 164 266 bubble 0;
#X obj 4 201 osc~;
#X obj 4 226 *~;
#X obj 4 5 inlet;
#X obj 4 247 outlet~;
#N canvas 231 126 162 178 env4pow 0;
#X obj 61 46 vline~;
#X obj 61 72 *~;
#X obj 61 97 *~;
#X obj 1 134 -~;
#X obj 1 158 outlet~;
#X msg 61 23 1 0 0 \, 0 \$1 0;
#X obj 61 1 inlet;
#X obj 1 96 sig~ 1;
#X obj 61 158 outlet~;
#X obj 61 127 *~;
#X connect 0 0 1 0;
#X connect 0 0 1 1;
#X connect 1 0 2 0;
#X connect 1 0 2 1;
#X connect 2 0 3 1;
#X connect 2 0 9 0;
#X connect 2 0 9 1;
#X connect 3 0 4 0;
#X connect 5 0 0 0;
#X connect 6 0 5 0;
#X connect 7 0 3 0;
#X connect 9 0 8 0;
#X restore 4 134 pd env4pow;
#X obj 85 114 + 0.1;
#X obj 4 179 +~;
#X obj 69 156 lop~ 12;
#X obj 69 179 *~;
#X obj 4 111 * 90;
#X obj 39 114 + 100;
#X obj 4 156 *~ 2000;
#X obj 39 92 * 300;
#X obj 4 28 t f f f;
#X obj 39 51 swap 1;
#X obj 39 72 -;
#X connect 0 0 1 0;
#X connect 1 0 3 0;
#X connect 2 0 13 0;
#X connect 4 0 11 0;
#X connect 4 1 7 0;
#X connect 5 0 8 1;
#X connect 6 0 0 0;
#X connect 7 0 8 0;
#X connect 8 0 1 1;
#X connect 9 0 4 0;
#X connect 10 0 6 1;
#X connect 11 0 6 0;
#X connect 12 0 10 0;
#X connect 13 0 9 0;
#X connect 13 1 14 0;
#X connect 13 2 5 0;
#X connect 14 0 15 0;
#X connect 14 1 15 1;
#X connect 15 0 12 0;
#X restore 21 291 pd bubble;
#N canvas 0 0 164 266 bubble 0;
#X obj 4 201 osc~;
#X obj 4 226 *~;
#X obj 4 5 inlet;
#X obj 4 247 outlet~;
#N canvas 231 126 162 178 env4pow 0;
#X obj 61 46 vline~;
#X obj 61 72 *~;
#X obj 61 97 *~;
#X obj 1 134 -~;
#X obj 1 158 outlet~;
#X msg 61 23 1 0 0 \, 0 \$1 0;
#X obj 61 1 inlet;
#X obj 1 96 sig~ 1;
#X obj 61 158 outlet~;
#X obj 61 127 *~;
#X connect 0 0 1 0;
#X connect 0 0 1 1;
#X connect 1 0 2 0;
#X connect 1 0 2 1;
#X connect 2 0 3 1;
#X connect 2 0 9 0;
#X connect 2 0 9 1;
#X connect 3 0 4 0;
#X connect 5 0 0 0;
#X connect 6 0 5 0;
#X connect 7 0 3 0;
#X connect 9 0 8 0;
#X restore 4 134 pd env4pow;
#X obj 85 114 + 0.1;
#X obj 4 179 +~;
#X obj 69 156 lop~ 12;
#X obj 69 179 *~;
#X obj 4 111 * 90;
#X obj 39 114 + 100;
#X obj 4 156 *~ 2000;
#X obj 39 92 * 300;
#X obj 4 28 t f f f;
#X obj 39 51 swap 1;
#X obj 39 72 -;
#X connect 0 0 1 0;
#X connect 1 0 3 0;
#X connect 2 0 13 0;
#X connect 4 0 11 0;
#X connect 4 1 7 0;
#X connect 5 0 8 1;
#X connect 6 0 0 0;
#X connect 7 0 8 0;
#X connect 8 0 1 1;
#X connect 9 0 4 0;
#X connect 10 0 6 1;
#X connect 11 0 6 0;
#X connect 12 0 10 0;
#X connect 13 0 9 0;
#X connect 13 1 14 0;
#X connect 13 2 5 0;
#X connect 14 0 15 0;
#X connect 14 1 15 1;
#X connect 15 0 12 0;
#X restore 44 311 pd bubble;
#N canvas 0 0 164 266 bubble 0;
#X obj 4 201 osc~;
#X obj 4 226 *~;
#X obj 4 5 inlet;
#X obj 4 247 outlet~;
#N canvas 231 126 162 178 env4pow 0;
#X obj 61 46 vline~;
#X obj 61 72 *~;
#X obj 61 97 *~;
#X obj 1 134 -~;
#X obj 1 158 outlet~;
#X msg 61 23 1 0 0 \, 0 \$1 0;
#X obj 61 1 inlet;
#X obj 1 96 sig~ 1;
#X obj 61 158 outlet~;
#X obj 61 127 *~;
#X connect 0 0 1 0;
#X connect 0 0 1 1;
#X connect 1 0 2 0;
#X connect 1 0 2 1;
#X connect 2 0 3 1;
#X connect 2 0 9 0;
#X connect 2 0 9 1;
#X connect 3 0 4 0;
#X connect 5 0 0 0;
#X connect 6 0 5 0;
#X connect 7 0 3 0;
#X connect 9 0 8 0;
#X restore 4 134 pd env4pow;
#X obj 85 114 + 0.1;
#X obj 4 179 +~;
#X obj 69 156 lop~ 12;
#X obj 69 179 *~;
#X obj 4 111 * 90;
#X obj 39 114 + 100;
#X obj 4 156 *~ 2000;
#X obj 39 92 * 300;
#X obj 4 28 t f f f;
#X obj 39 51 swap 1;
#X obj 39 72 -;
#X connect 0 0 1 0;
#X connect 1 0 3 0;
#X connect 2 0 13 0;
#X connect 4 0 11 0;
#X connect 4 1 7 0;
#X connect 5 0 8 1;
#X connect 6 0 0 0;
#X connect 7 0 8 0;
#X connect 8 0 1 1;
#X connect 9 0 4 0;
#X connect 10 0 6 1;
#X connect 11 0 6 0;
#X connect 12 0 10 0;
#X connect 13 0 9 0;
#X connect 13 1 14 0;
#X connect 13 2 5 0;
#X connect 14 0 15 0;
#X connect 14 1 15 1;
#X connect 15 0 12 0;
#X restore 66 331 pd bubble;
#X obj 228 106 inlet size;
#X obj 1 86 random 75;
#X connect 1 0 11 0;
#X connect 2 0 14 0;
#X connect 3 0 8 0;
#X connect 4 0 2 0;
#X connect 5 0 6 0;
#X connect 5 0 7 0;
#X connect 6 0 5 1;
#X connect 7 0 10 0;
#X connect 8 0 5 0;
#X connect 9 0 10 1;
#X connect 10 0 13 0;
#X connect 11 0 9 0;
#X connect 12 0 16 0;
#X connect 13 0 12 0;
#X connect 13 1 17 0;
#X connect 13 2 18 0;
#X connect 13 3 19 0;
#X connect 14 0 21 0;
#X connect 14 1 1 0;
#X connect 15 0 3 1;
#X connect 16 0 0 0;
#X connect 16 0 0 1;
#X connect 17 0 16 0;
#X connect 18 0 16 0;
#X connect 19 0 16 0;
#X connect 20 0 9 1;
#X connect 21 0 3 0;
