#N canvas 344 230 450 300 10;
#X obj 65 59 FireGen;
#X obj 59 85 bp~ 600 0.2;
#X obj 185 114 *~ 0.2;
#X obj 184 154 dac~;
#X obj 235 57 FireGen;
#X obj 229 83 bp~ 1200 0.6;
#X obj 330 54 FireGen;
#X obj 155 56 FireGen;
#X obj 324 81 bp~ 2600 0.4;
#X obj 149 82 bp~ 1000;
#X connect 0 0 1 0;
#X connect 1 0 2 0;
#X connect 2 0 3 0;
#X connect 2 0 3 1;
#X connect 4 0 5 0;
#X connect 5 0 2 0;
#X connect 6 0 8 0;
#X connect 7 0 9 0;
#X connect 8 0 2 0;
#X connect 9 0 2 0;
