#N canvas 76 155 450 300 10;
#X obj 114 44 osc~ 440;
#X obj 112 73 *~ 0.25;
#X obj 111 105 *~, f 4;
#X obj 113 132 dac~;
#X obj 186 108 r onOff;
#X obj 198 76 s onOff;
#X obj 196 35 tgl 15 0 empty empty empty 17 7 0 10 -262144 -1 -1 0
1;
#X connect 0 0 1 0;
#X connect 1 0 2 0;
#X connect 2 0 3 0;
#X connect 2 0 3 1;
#X connect 4 0 2 1;
#X connect 6 0 5 0;
