#N canvas 298 272 309 272 10;
#X obj 0 84 osc~;
#X obj 0 64 + 800;
#X obj 0 130 dac~;
#X msg 0 0 1;
#X obj 0 24 metro 6;
#X msg 35 0 0;
#X obj 0 104 *~ 0.05;
#X obj 0 44 random 1500;
#X connect 0 0 6 0;
#X connect 1 0 0 0;
#X connect 3 0 4 0;
#X connect 4 0 7 0;
#X connect 5 0 4 0;
#X connect 6 0 2 0;
#X connect 6 0 2 1;
#X connect 7 0 1 0;
